<?xml version="1.0" encoding="utf-8"?>
<!-- Generator: Adobe Illustrator 25.2.3, SVG Export Plug-In . SVG Version: 6.00 Build 0)  -->
<svg version="1.1" id="Capa_1" xmlns="http://www.w3.org/2000/svg" xmlns:xlink="http://www.w3.org/1999/xlink" x="0px" y="0px"
	 viewBox="0 0 362.86 362.92" style="enable-background:new 0 0 362.86 362.92;" xml:space="preserve">
<style type="text/css">
	.st0{fill:#D55015;}
	.st1{fill:#E2A9CA;}
	.st2{fill:none;}
	.st3{fill:#284194;}
	.st4{fill:#FFFFFF;}
	.st5{fill:none;stroke:#FFFFFF;stroke-width:1.8276;stroke-miterlimit:10;}
	.st6{fill:#4753A0;}
	.st7{fill:#102F1C;}
	.st8{fill:#D892BF;}
	.st9{fill:#BA8FBA;}
	.st10{fill:#A3749E;}
	.st11{fill:none;stroke:#D892BF;stroke-width:3;stroke-linecap:round;stroke-miterlimit:10;}
	.st12{fill:#0B1013;}
	.st13{fill:#FCFEFD;}
	.st14{fill:#E5EFD0;}
	.st15{fill:#FFF2B8;}
	.st16{fill:#176AB3;}
	.st17{fill:#F098C1;}
	.st18{fill:#170B06;}
	.st19{fill:#FBCD3A;}
	.st20{fill:#EF7857;}
	.st21{fill:#86C7AC;}
	.st22{opacity:0.1;}
</style>
<g id="XMLID_635_">
	<path id="XMLID_637_" class="st0" d="M120.4,282.57c0-8.31-6.73-15.04-15.04-15.04l-83.46,0c-0.07,0-0.14,0.02-0.21,0.02
		C7.86,241.93,0,212.62,0,181.46C0,81.24,81.24,0,181.46,0s181.46,81.24,181.46,181.46c0,100.22-81.24,181.46-181.46,181.46
		c-56.02,0-106.1-25.4-139.38-65.3l63.28,0C113.67,297.62,120.4,290.88,120.4,282.57z"/>
	<path id="XMLID_636_" class="st0" d="M21.9,267.15l121.46,0c8.31,0,15.04,8.73,15.04,17.04c0,8.31-6.74,15.04-15.04,15.04H43.44
		c-7.75-9.28-15.95-21.35-21.74-32.07C21.77,267.17,21.83,267.15,21.9,267.15z"/>
</g>
<g id="XMLID_595_">
	<path id="XMLID_600_" class="st4" d="M113.62,190.77c0.7,0.46,1.4,0.7,2.57-1.64c10.52-25.5,30.88-63.63,61.29-63.63
		c14.51,0,35.79,8.65,25.97,40.7l-6.08,22.69c10.53-25.5,31.35-63.39,61.52-63.39c14.51,0,36.49,8.65,25.73,40.7l-7.72,23.63
		c-6.08,17.78-0.93,22.69,3.98,22.69c6.55,0,12.4-6.32,15.2-13.8c0.94-3.04,3.51-4.44,5.62-4.44c2.1,0,3.51,1.4,2.34,4.44
		c-4.45,12.17-17.55,38.13-56.14,38.13c-23.86,0-31.81-18.25-21.76-43.75l5.38-13.8c4.45-11.46,3.51-18.01-2.1-18.01
		c-9.36,0-32.75,32.52-38.37,55.68c0.46,7.95,5.61,8.89,4.21,14.27c-0.47,2.11-2.57,3.74-4.68,3.74h-60.82
		c-2.11,0-3.27-1.64-2.81-3.74c1.17-3.98,11.93-6.08,14.27-15.2l9.82-36.49c2.81-11.46,2.34-18.25-3.04-18.25
		c-9.12,0-31.58,31.82-37.9,54.74v0.47c-0.46,8.65,5.85,10.76,4.91,14.74c-0.46,2.11-2.81,3.74-4.68,3.74H49.52
		c-2.11,0-3.27-1.64-2.81-3.74c1.17-3.98,10.3-5.85,12.63-14.74l15.44-56.85c3.27-12.4-5.85-11.23-4.68-15.67
		c0.47-1.64,2.11-4.68,5.85-4.91c40-0.94,45.38-11.93,51.7-11.93c4.45,0,3.27,5.38,2.57,8.42c-1.64,6.08-3.74,11.7-5.61,18.01
		L113.62,190.77z"/>
</g>
</svg>
